<svg xmlns="http://www.w3.org/2000/svg" viewBox="0 0 300 400" width="300" height="400"><defs><linearGradient id="bg" x1="0" y1="0" x2="0" y2="1"><stop offset="0" stop-color="#ffb15c"/><stop offset="0.4" stop-color="#f97316"/><stop offset="0.75" stop-color="#9a2c06"/><stop offset="1" stop-color="#2a0a02"/></linearGradient><radialGradient id="gl" cx="0.5" cy="0.5" r="0.5"><stop offset="0" stop-color="#fff1c2" stop-opacity="0.75"/><stop offset="0.45" stop-color="#fff1c2" stop-opacity="0.25"/><stop offset="1" stop-color="#fff1c2" stop-opacity="0"/></radialGradient><radialGradient id="vg" cx="0.5" cy="0.42" r="0.72"><stop offset="0.55" stop-color="#000" stop-opacity="0"/><stop offset="1" stop-color="#000" stop-opacity="0.55"/></radialGradient><linearGradient id="bf" x1="0" y1="0" x2="0" y2="1"><stop offset="0" stop-color="#000" stop-opacity="0"/><stop offset="0.55" stop-color="#000" stop-opacity="0.615"/><stop offset="1" stop-color="#000" stop-opacity="0.82"/></linearGradient><linearGradient id="trail" x1="0" y1="0" x2="1" y2="0"><stop offset="0" stop-color="#fff" stop-opacity="0"/><stop offset="1" stop-color="#fff" stop-opacity="0.9"/></linearGradient><linearGradient id="area" x1="0" y1="0" x2="0" y2="1"><stop offset="0" stop-color="#fff" stop-opacity="0.35"/><stop offset="1" stop-color="#fff" stop-opacity="0"/></linearGradient><linearGradient id="fus" x1="0" y1="0" x2="0" y2="1"><stop offset="0" stop-color="#ff5a4f"/><stop offset="1" stop-color="#a8101a"/></linearGradient></defs><rect width="300" height="400" fill="url(#bg)"/><circle cx="190" cy="130" r="170" fill="url(#gl)"/><path d="M190 130L152.9 -288.4L227.1 -288.4ZM190 130L315.9 -270.7L384.3 -242.3ZM190 130L459.6 -192L512 -139.6ZM190 130L562.3 -64.3L590.7 4.1ZM190 130L608.4 92.9L608.4 167.1ZM190 130L590.7 255.9L562.3 324.3ZM190 130L512 399.6L459.6 452ZM190 130L384.3 502.3L315.9 530.7ZM190 130L227.1 548.4L152.9 548.4ZM190 130L64.1 530.7L-4.3 502.3ZM190 130L-79.6 452L-132 399.6ZM190 130L-182.3 324.3L-210.7 255.9ZM190 130L-228.4 167.1L-228.4 92.9ZM190 130L-210.7 4.1L-182.3 -64.3ZM190 130L-132 -139.6L-79.6 -192ZM190 130L-4.3 -242.3L64.1 -270.7Z" fill="#fff1c2" opacity="0.12"/><g fill="#fff" opacity=".75"><circle cx="50" cy="90" r="20"/><circle cx="74" cy="82" r="24"/><circle cx="98" cy="94" r="16"/><rect x="40" y="94" width="66" height="16" rx="8"/></g><g fill="#fff" opacity=".55"><circle cx="230" cy="236" r="18"/><circle cx="252" cy="228" r="22"/><circle cx="274" cy="240" r="14"/><rect x="220" y="238" width="64" height="14" rx="7"/></g><path d="M20 262C100 258 150 232 182 160L182 262Z" fill="url(#area)"/><path d="M20 262C100 258 150 232 182 160" fill="none" stroke="url(#trail)" stroke-width="6" stroke-linecap="round"/><g transform="translate(196 140) rotate(-38)"><path d="M-60 0C-50-14 30-16 52-6C60-2 60 4 52 8C30 16-50 14-60 0Z" fill="url(#fus)" stroke="#5a0008" stroke-width="2"/><path d="M-6-4L-26-50L-10-50L18-4Z" fill="#e0242f" stroke="#5a0008" stroke-width="2"/><path d="M-4 6L-22 44L-8 44L16 6Z" fill="#b5121c"/><path d="M-54-2L-68-26L-56-26L-40-2Z" fill="#e0242f" stroke="#5a0008" stroke-width="2"/><path d="M14-8C20-20 36-18 40-8Z" fill="#9be7ff" stroke="#5a0008" stroke-width="2"/><rect x="54" y="-5" width="10" height="10" rx="3" fill="#ffd23f"/><ellipse cx="66" cy="0" rx="4" ry="30" fill="#fff" opacity=".5"/><path d="M-40 0H40" stroke="#fff" stroke-width="3" opacity=".6"/></g><path d="M150 73Q150 80 157 80Q150 80 150 87Q150 80 143 80Q150 80 150 73Z" fill="#fff" opacity="0.9"/><path d="M262 58Q262 64 268 64Q262 64 262 70Q262 64 256 64Q262 64 262 58Z" fill="#fff" opacity="0.8"/><path d="M120 195Q120 200 125 200Q120 200 120 205Q120 200 115 200Q120 200 120 195Z" fill="#fff" opacity="0.7"/><rect width="300" height="400" fill="url(#vg)"/><rect y="255" width="300" height="145" fill="url(#bf)"/></svg>
