<svg xmlns="http://www.w3.org/2000/svg" viewBox="0 0 300 400" width="300" height="400"><defs><linearGradient id="bg" x1="0" y1="0" x2="0" y2="1"><stop offset="0" stop-color="#ffd166"/><stop offset="0.35" stop-color="#f97316"/><stop offset="0.7" stop-color="#9a3412"/><stop offset="1" stop-color="#220a02"/></linearGradient><radialGradient id="gl" cx="0.5" cy="0.5" r="0.5"><stop offset="0" stop-color="#fff1b0" stop-opacity="0.75"/><stop offset="0.45" stop-color="#fff1b0" stop-opacity="0.25"/><stop offset="1" stop-color="#fff1b0" stop-opacity="0"/></radialGradient><radialGradient id="vg" cx="0.5" cy="0.42" r="0.72"><stop offset="0.55" stop-color="#000" stop-opacity="0"/><stop offset="1" stop-color="#000" stop-opacity="0.55"/></radialGradient><linearGradient id="bf" x1="0" y1="0" x2="0" y2="1"><stop offset="0" stop-color="#000" stop-opacity="0"/><stop offset="0.55" stop-color="#000" stop-opacity="0.615"/><stop offset="1" stop-color="#000" stop-opacity="0.82"/></linearGradient><linearGradient id="horn" x1="0" y1="0" x2="0" y2="1"><stop offset="0" stop-color="#fffaf0"/><stop offset="1" stop-color="#b49a6a"/></linearGradient><radialGradient id="fur" cx="0.5" cy="0.35" r="0.65"><stop offset="0" stop-color="#7a4322"/><stop offset="0.7" stop-color="#3d1d0c"/><stop offset="1" stop-color="#1f0d04"/></radialGradient></defs><rect width="300" height="400" fill="url(#bg)"/><circle cx="150" cy="120" r="170" fill="url(#gl)"/><circle cx="150" cy="128" r="70" fill="#ffe7a3" opacity=".75"/><path d="M150 128L117 -290.7L183 -290.7ZM150 128L262.2 -276.7L324.2 -254.2ZM150 128L393.9 -213.9L444.4 -171.6ZM150 128L496.1 -109.9L529.1 -52.8ZM150 128L556.6 22.8L568.1 87.7ZM150 128L568.1 168.3L556.6 233.2ZM150 128L529.1 308.8L496.1 365.9ZM150 128L444.4 427.6L393.9 469.9ZM150 128L324.2 510.2L262.2 532.7ZM150 128L183 546.7L117 546.7ZM150 128L37.8 532.7L-24.2 510.2ZM150 128L-93.9 469.9L-144.4 427.6ZM150 128L-196.1 365.9L-229.1 308.8ZM150 128L-256.6 233.2L-268.1 168.3ZM150 128L-268.1 87.7L-256.6 22.8ZM150 128L-229.1 -52.8L-196.1 -109.9ZM150 128L-144.4 -171.6L-93.9 -213.9ZM150 128L-24.2 -254.2L37.8 -276.7Z" fill="#fff1b0" opacity="0.12"/><path d="M0 230L30 200H70L90 222L130 214L170 226L210 196H250L272 216L300 210V400H0Z" fill="#5c1d06" opacity=".75"/><path d="M150 70C200 66 250 100 258 150C264 190 240 214 214 222L86 222C60 214 36 190 42 150C50 100 100 66 150 70Z" fill="#2a1206"/><path d="M60 168l-14 10l18 2l-12 14l20-2M240 168l14 10l-18 2l12 14l-20-2" fill="#2a1206"/><path d="M98 132C64 134 40 112 44 74C54 98 72 110 104 112Z" fill="url(#horn)" stroke="#3d2a14" stroke-width="2"/><path d="M202 132C236 134 260 112 256 74C246 98 228 110 196 112Z" fill="url(#horn)" stroke="#3d2a14" stroke-width="2"/><path d="M150 92C192 92 208 122 206 160C204 196 188 228 174 248C166 260 158 266 150 266C142 266 134 260 126 248C112 228 96 196 94 160C92 122 108 92 150 92Z" fill="url(#fur)"/><path d="M108 112Q118 88 134 100Q142 82 156 98Q168 84 178 102Q192 92 194 116Q172 106 150 112Q128 104 108 112Z" fill="#5a2e14"/><ellipse cx="100" cy="150" rx="16" ry="9" fill="#3d1d0c" transform="rotate(25 100 150)"/><ellipse cx="200" cy="150" rx="16" ry="9" fill="#3d1d0c" transform="rotate(-25 200 150)"/><path d="M114 152L140 162M186 152L160 162" stroke="#140602" stroke-width="5" stroke-linecap="round"/><ellipse cx="128" cy="168" rx="7" ry="6" fill="#140602"/><ellipse cx="172" cy="168" rx="7" ry="6" fill="#140602"/><circle cx="130" cy="166" r="2" fill="#ffd166"/><circle cx="174" cy="166" r="2" fill="#ffd166"/><ellipse cx="150" cy="230" rx="34" ry="24" fill="#6b3a1e"/><ellipse cx="150" cy="226" rx="26" ry="15" fill="#8a5232"/><ellipse cx="138" cy="232" rx="6" ry="8" fill="#1a0a03"/><ellipse cx="162" cy="232" rx="6" ry="8" fill="#1a0a03"/><path d="M52 46Q52 52 58 52Q52 52 52 58Q52 52 46 52Q52 52 52 46Z" fill="#fff7d6" opacity="0.8"/><path d="M250 47Q250 52 255 52Q250 52 250 57Q250 52 245 52Q250 52 250 47Z" fill="#fff7d6" opacity="0.7"/><rect width="300" height="400" fill="url(#vg)"/><rect y="255" width="300" height="145" fill="url(#bf)"/></svg>
